<?xml version="1.0" encoding="utf-8"?>
<!-- Generator: Adobe Illustrator 22.0.1, SVG Export Plug-In . SVG Version: 6.00 Build 0)  -->
<svg version="1.1" id="Layer_1" xmlns="http://www.w3.org/2000/svg" xmlns:xlink="http://www.w3.org/1999/xlink" x="0px" y="0px"
	 viewBox="0 0 750.4 188.8" style="enable-background:new 0 0 750.4 188.8;" xml:space="preserve">
<style type="text/css">
	.st0{clip-path:url(#SVGID_2_);fill:url(#SVGID_3_);}
	.st1{fill:#000;}
</style>
<g>
	<defs>
		<path id="SVGID_1_" d="M443,188.8h-35.5c-11.6-36.2-23.2-72.4-34.9-108.7c-3.4-10.8-1.7-17.1,8-18.1l12.1-0.2
			c9.8,0.2,13.7,3.3,16,12.5l13.7,55.1c-5.9,2.1-10.1,7.7-10.1,14.3c0,8.4,6.8,15.2,15.2,15.2c8.4,0,15.2-6.8,15.2-15.2
			c0-6.9-4.6-12.7-10.9-14.6l25.3-97.7l-15.4,8.2c-4.3,2.3-8.7,5.6-12.5-1.4c-2.9-5.4-4.7-8.7,2.4-12.4c6.4-3.4,44.3-24.5,50.1-26
			l2.7,0.8c3.5,3.7,4.7,7.1,7.3,11.9l19.9,37.4c3.6,6.6,1.7,8.5-4.1,11.6c-9.1,4.8-10.8-3.3-18.2-17.1c-0.5-0.9-0.9-1.8-1.4-2.7
			L443,188.8z"/>
	</defs>
	<clipPath id="SVGID_2_">
		<use xlink:href="#SVGID_1_"  style="overflow:visible;"/>
	</clipPath>
	<linearGradient id="SVGID_3_" gradientUnits="userSpaceOnUse" x1="442.2979" y1="233.2975" x2="442.2979" y2="-59.2041">
		<stop  offset="0" style="stop-color:#FBAF3C"/>
		<stop  offset="8.000000e-02" style="stop-color:#FBAF3C"/>
		<stop  offset="0.92" style="stop-color:#F3713F"/>
		<stop  offset="1" style="stop-color:#F3713F"/>
	</linearGradient>
	<rect x="369.2" class="st0" width="146.1" height="188.8"/>
</g>
<path class="st1" d="M47.1,50.9c-3.8,0-7.4,0.7-10.7,2v57.3c1.8,0.6,4.5,0.9,8,0.9c9.4,0,16.5-2.7,21.3-8c4.8-5.3,7.2-12.8,7.2-22.5
	c0-10.3-1.9-17.9-5.7-22.6C63.3,53.3,56.7,50.9,47.1,50.9 M74,188.8l-37.1-69.2l-0.5,69.2H0V39.1c5.9-2.9,12.9-5.1,20.9-6.7
	c8-1.6,16.8-2.4,26.2-2.4c20.6,0,36.1,4.3,46.4,12.9c10.3,8.6,15.5,20.6,15.5,36.1c0,10.2-3.4,18.9-10.2,26.3
	c-6.8,7.4-15.5,11.9-25.9,13.5l41.6,70.1H74z"/>
<path class="st1" d="M161.6,82.5c-15,0-22.5,12.6-22.5,37.7l42.8-6.3c0-10.8-1.7-18.7-5.1-23.7C173.3,85.1,168.3,82.5,161.6,82.5
	 M141.4,137.6c2.4,17.9,12.3,26.9,29.6,26.9c6.5,0,12.6-0.6,18.1-1.8c5.5-1.2,10.1-2.8,13.8-4.8l8,22.1c-5.2,2.6-11.4,4.7-18.8,6.4
	c-7.4,1.7-15.7,2.5-25.1,2.5c-18.7,0-33.2-5.7-43.6-17.1c-10.4-11.4-15.6-27-15.6-46.9c0-19.4,4.9-34.8,14.6-46.2
	c9.7-11.4,23.3-17.1,40.7-17.1c17.4,0,30.5,5.6,39,16.8c8.6,11.2,12.9,27.5,12.9,48.7L141.4,137.6z"/>
<path class="st1" d="M287.8,122.1c-12.1,1.2-21,3.6-26.7,7.3c-5.7,3.6-8.5,10.1-8.5,19.3c0,7,1.9,12.1,5.7,15.5
	c3.8,3.3,9.3,5,16.6,5c5.3,0,9.6-0.8,13-2.5V122.1z M273,188.8c-35.8,0-53.7-12.9-53.7-38.7c0-14.6,6.1-25.1,18.2-31.6
	c12.1-6.5,28.9-10.8,50.3-12.7v-5.7c0-6.1-1.9-10.3-5.6-12.7c-3.7-2.4-9.1-3.6-16-3.6c-5.6,0-11.1,0.7-16.4,2
	c-5.3,1.4-10.5,3.2-15.5,5.5l-7.7-20.3c7.1-3,14.9-5.3,23.3-6.9c8.4-1.6,16-2.4,22.9-2.4c15.2,0,27,3.5,35.5,10.5
	c8.5,7,12.7,18.4,12.7,34.4v73.3c-5.3,2.9-12.1,5.1-20.3,6.7C292.6,188,283.4,188.8,273,188.8z"/>
<rect x="331.1" y="10.2" class="st1" width="35.5" height="178.6"/>
<path class="st1" d="M542.1,82.5c-15,0-22.5,12.6-22.5,37.7l42.8-6.3c0-10.8-1.7-18.7-5.1-23.7C553.8,85.1,548.8,82.5,542.1,82.5
	 M521.8,137.6c2.4,17.9,12.3,26.9,29.6,26.9c6.5,0,12.6-0.6,18.1-1.8c5.5-1.2,10.1-2.8,13.8-4.8l8,22.1c-5.2,2.6-11.4,4.7-18.8,6.4
	c-7.4,1.7-15.7,2.5-25.1,2.5c-18.7,0-33.2-5.7-43.6-17.1c-10.4-11.4-15.6-27-15.6-46.9c0-19.4,4.9-34.8,14.6-46.2
	c9.7-11.4,23.3-17.1,40.7-17.1c17.4,0,30.5,5.6,39,16.8c8.6,11.2,12.9,27.5,12.9,48.7L521.8,137.6z"/>
<path class="st1" d="M632.8,188.8c-7.3,0-14.1-0.8-20.5-2.5c-6.4-1.7-11.5-3.8-15.5-6.4l9.1-22.5c2.3,1.8,5.5,3.5,9.7,4.9
	c4.2,1.4,8.2,2.2,12.2,2.2c4.6,0,8.2-1.3,11-3.8c2.8-2.5,4.2-5.7,4.2-9.7c0-4.2-1.1-7.6-3.4-10c-2.3-2.4-7.5-5.3-15.7-8.5
	c-8.2-3.3-14.3-7.8-18.2-13.5c-3.9-5.8-5.9-12.2-5.9-19.3c0-10.6,3.8-19.6,11.4-26.9c7.6-7.3,17.4-10.9,29.6-10.9
	c14,0,25.7,3,35.3,8.9L667.4,91c-2.1-1.7-4.8-3.1-8.1-4.4c-3.3-1.3-6.8-1.9-10.6-1.9c-4.4,0-7.9,1.2-10.4,3.6
	c-2.5,2.4-3.8,5.5-3.8,9.1c0,6.7,5.4,12.3,16.3,17c10.8,4.6,18.3,9.7,22.4,15.4c4.1,5.6,6.1,12.4,6.1,20.5
	c0,11.1-4.2,20.3-12.6,27.6C658.4,185.1,647.1,188.8,632.8,188.8"/>
<path class="st1" d="M732.9,188.8c-12.1,0-21.3-3.4-27.5-10.1c-6.2-6.8-9.3-15.2-9.3-25.4v-66h-13.4v-23h13.4V38.3l35.5-9.1v35.1
	h18.9v23h-18.9v63.3c0,9.6,3.8,14.3,11.4,14.3c2,0,4.5-0.5,7.5-1.4v21.8c-1.4,0.6-3.8,1.3-7.4,2.2
	C739.5,188.4,736.1,188.8,732.9,188.8"/>
</svg>
